<?xml version="1.0" standalone="no"?>
<!DOCTYPE svg PUBLIC "-//W3C//DTD SVG 20010904//EN"
 "http://www.w3.org/TR/2001/REC-SVG-20010904/DTD/svg10.dtd">
<svg version="1.0" xmlns="http://www.w3.org/2000/svg"
 width="871.000000pt" height="229.000000pt" viewBox="0 0 871.000000 229.000000"
 preserveAspectRatio="xMidYMid meet">
<g transform="translate(0.000000,229.000000) scale(0.100000,-0.100000)"
fill="#000000" stroke="none">
<path d="M2200 1140 c0 -620 3 -940 10 -940 7 0 10 320 10 940 0 620 -3 940
-10 940 -7 0 -10 -320 -10 -940z"/>
<path d="M1125 1686 c-39 -18 -70 -52 -90 -99 -14 -34 -14 -50 6 -208 19 -145
20 -172 8 -184 -8 -7 -72 -22 -142 -33 -71 -11 -135 -26 -143 -32 -20 -18 -19
-123 2 -144 13 -14 66 -16 428 -16 307 0 415 3 424 12 18 18 15 123 -3 142
-20 19 -30 22 -165 41 -63 9 -119 21 -124 25 -12 12 -11 41 8 185 27 200 20
238 -48 290 -42 32 -117 42 -161 21z m88 -97 c29 -16 37 -28 37 -60 0 -53 -69
-81 -110 -44 -33 30 -21 92 20 108 23 8 29 8 53 -4z"/>
<path d="M6045 1496 c-56 -21 -101 -74 -121 -143 -15 -48 -18 -101 -18 -308
l-1 -250 59 -3 c41 -2 62 1 67 10 5 7 9 59 9 116 l0 102 105 0 104 0 3 -112 3
-113 65 0 65 0 0 285 c0 252 -2 288 -17 315 -24 41 -48 68 -81 90 -38 24 -186
31 -242 11z m164 -140 c25 -20 41 -74 41 -138 l0 -63 -106 3 -107 3 6 76 c6
84 26 123 68 134 29 8 79 0 98 -15z"/>
<path d="M4266 1488 c-54 -15 -109 -73 -127 -134 -10 -34 -14 -103 -14 -230
l0 -180 30 -60 c39 -75 79 -99 179 -107 81 -7 127 2 177 36 48 32 88 110 89
170 l0 48 -67 -3 -67 -3 -7 -35 c-10 -48 -50 -80 -100 -80 -88 0 -103 35 -102
237 0 120 4 147 19 174 23 39 64 53 117 38 37 -10 52 -29 71 -91 7 -24 123
-26 132 -3 22 55 -36 168 -105 209 -40 23 -164 31 -225 14z"/>
<path d="M4858 1486 c-87 -31 -119 -75 -139 -191 -16 -91 -7 -325 15 -385 32
-88 83 -124 191 -133 119 -11 190 21 242 111 28 47 28 47 28 237 0 159 -3 198
-18 237 -22 56 -81 113 -134 127 -52 15 -140 13 -185 -3z m158 -141 c30 -19
44 -86 44 -212 0 -174 -18 -213 -99 -221 -57 -5 -85 10 -103 57 -13 35 -11
300 3 340 20 56 95 73 155 36z"/>
<path d="M6554 1493 l-32 -4 -5 -267 c-3 -147 -5 -303 -4 -347 l2 -80 160 0
160 0 3 62 3 62 -93 3 -93 3 -2 279 c-1 220 -4 281 -15 287 -13 9 -27 9 -84 2z"/>
<path d="M7510 1491 l-25 -7 -3 -347 c-2 -274 0 -347 10 -347 7 -1 34 -3 60
-5 26 -2 49 -1 52 3 2 4 6 96 8 204 1 109 5 198 8 197 3 0 58 -89 123 -198
l118 -198 52 -6 c30 -4 56 -2 62 4 6 6 10 131 10 351 l0 342 -32 8 c-18 5 -48
5 -65 0 l-33 -8 -5 -200 -5 -199 -37 60 c-20 33 -55 93 -78 133 -22 40 -58
100 -80 133 -21 33 -40 64 -42 70 -4 13 -67 20 -98 10z"/>
<path d="M8229 1481 c-48 -27 -86 -72 -101 -124 -8 -27 -13 -104 -13 -217 0
-142 3 -185 18 -226 32 -92 99 -134 215 -134 119 0 177 32 220 120 26 54 27
59 27 240 0 182 0 186 -28 241 -18 37 -41 66 -68 85 -37 26 -51 29 -138 31
-80 3 -102 0 -132 -16z m191 -136 c25 -23 40 -98 40 -205 0 -107 -15 -182 -40
-205 -11 -10 -39 -20 -63 -22 -35 -4 -48 -1 -71 18 -23 20 -29 36 -37 99 -9
71 -5 213 7 272 9 44 51 71 102 65 24 -2 51 -12 62 -22z"/>
<path d="M3080 1468 c-32 -80 -211 -661 -206 -673 8 -21 109 -21 130 0 8 8 20
40 27 70 l12 55 112 0 112 0 18 -61 c21 -68 35 -79 100 -79 75 0 79 -24 -77
445 -94 280 -85 265 -158 265 -53 0 -62 -3 -70 -22z m109 -307 c17 -47 31 -88
31 -93 0 -4 -29 -8 -65 -8 -36 0 -65 1 -65 3 0 3 48 157 55 176 8 20 10 16 44
-78z"/>
<path d="M3545 1469 c-3 -13 -4 -172 -3 -354 l3 -330 50 -3 c28 -1 55 1 62 6
8 5 13 52 15 142 3 126 5 135 23 135 15 0 29 -22 61 -95 23 -53 58 -114 80
-139 35 -39 45 -44 91 -48 69 -7 103 13 103 60 0 38 -15 57 -46 57 -32 0 -72
36 -98 88 -38 76 -40 89 -14 96 37 9 99 67 119 110 32 71 19 180 -28 231 -46
49 -84 59 -255 63 l-157 4 -6 -23z m278 -120 c47 -21 62 -94 27 -129 -18 -18
-31 -20 -98 -18 l-77 3 -1 70 c-1 39 1 73 3 78 7 11 119 8 146 -4z"/>
<path d="M5327 1483 c-4 -3 -7 -158 -7 -343 0 -248 3 -339 12 -348 16 -16 228
-16 299 -1 59 13 124 65 146 116 29 72 9 150 -52 200 l-37 31 26 17 c35 23 76
94 76 131 0 95 -61 174 -150 193 -55 12 -302 15 -313 4z m290 -147 c22 -19 28
-32 28 -66 0 -58 -20 -70 -117 -70 l-78 0 0 80 0 80 69 0 c59 0 74 -4 98 -24z
m8 -291 c31 -30 32 -56 2 -91 -18 -20 -35 -28 -75 -32 -28 -2 -62 -2 -76 2
-25 6 -26 10 -26 76 l0 70 75 0 c67 0 79 -3 100 -25z"/>
<path d="M6947 1483 c-4 -3 -7 -161 -7 -350 l0 -343 208 2 207 3 3 62 3 62
-143 3 -143 3 0 80 0 80 138 3 137 3 2 44 c1 25 2 53 2 63 1 15 -14 18 -134
22 l-135 5 -3 67 -3 67 138 3 138 3 3 63 3 62 -204 0 c-112 0 -207 -3 -210 -7z"/>
<path d="M380 1133 c-34 -13 -41 -66 -11 -83 11 -5 65 -10 121 -10 117 0 140
8 140 51 0 22 -6 32 -26 39 -27 11 -198 12 -224 3z"/>
<path d="M302 924 c-28 -19 -28 -49 0 -68 18 -13 51 -16 156 -16 73 0 142 5
153 10 26 14 26 66 0 80 -11 5 -80 10 -153 10 -105 0 -138 -3 -156 -16z"/>
<path d="M781 809 c-17 -85 -70 -228 -92 -250 -17 -17 -39 -19 -263 -19 -209
0 -247 -2 -260 -16 -19 -19 -20 -35 -3 -57 11 -16 45 -17 412 -15 l400 3 19
53 c10 28 22 52 26 52 4 0 16 -24 26 -52 l19 -53 89 -3 c55 -2 93 1 100 8 6 6
20 39 32 72 11 34 24 63 30 65 5 2 17 -25 27 -60 10 -34 23 -68 29 -74 7 -8
37 -13 83 -13 82 0 87 3 103 72 15 60 27 264 18 311 l-7 37 -387 0 -388 0 -13
-61z"/>
<path d="M238 729 c-11 -6 -18 -22 -18 -40 0 -43 26 -49 205 -49 179 0 205 6
205 49 0 20 -7 34 -19 41 -26 13 -350 13 -373 -1z"/>
</g>
</svg>
